<?xml version="1.0" standalone="no"?><!DOCTYPE svg PUBLIC "-//W3C//DTD SVG 1.1//EN" "http://www.w3.org/Graphics/SVG/1.1/DTD/svg11.dtd"><svg t="1533182671089" class="icon" style="" viewBox="0 0 1024 1024" version="1.1" xmlns="http://www.w3.org/2000/svg" p-id="5944" xmlns:xlink="http://www.w3.org/1999/xlink" width="200" height="200"><defs><style type="text/css"></style></defs><path d="M511.987 911.927c-11.778 0-23.397-3.967-32.717-11.169-6.322-4.887-63.714-49.503-131.443-110.731-90.284-81.62-155.042-152.78-192.476-211.504-16.984-26.669-33.263-53.062-45.803-82.796-14.956-35.462-22.225-70.536-22.225-107.227 0-67.594 24.281-131.373 68.372-179.587 45.312-49.55 105.938-76.838 170.712-76.838 72.511 0 140.648 35.542 185.59 94.887 44.955-59.343 113.097-94.887 185.596-94.887 64.765 0 125.388 27.288 170.701 76.837 44.098 48.219 68.383 111.998 68.383 179.588 0 83.24-39.333 144.955-68.054 190.018-37.422 58.726-102.177 129.888-192.467 211.51-67.731 61.229-125.131 105.847-131.453 110.732C535.378 907.962 523.761 911.927 511.987 911.927zM326.407 182.073c-50.567 0-98.09 21.515-133.814 60.581-35.642 38.975-55.27 90.771-55.27 145.845 0 29.887 5.984 58.605 18.295 87.797 11.03 26.153 26.114 50.57 41.901 75.358 84.647 132.791 303.07 302.387 312.327 309.542 0.781 0.604 1.595 0.73 2.141 0.73 0.545 0 1.36-0.127 2.146-0.734 9.253-7.15 227.699-176.748 312.323-309.545 28.228-44.291 60.22-94.487 60.22-163.148 0-55.07-19.632-106.866-55.279-145.845-35.727-39.065-83.246-60.58-133.805-60.58-67.126 0-129.784 39.45-163.522 102.955-4.338 8.167-12.831 13.271-22.078 13.271-0.001 0-0.002 0-0.003 0-9.248-0.001-17.74-5.107-22.078-13.276C456.194 221.522 393.542 182.073 326.407 182.073z" p-id="5945" fill="#8a8a8a"></path></svg>